<?xml version="1.0" encoding="UTF-8" standalone="no"?>
<!DOCTYPE svg PUBLIC "-//W3C//DTD SVG 1.1//EN"
 "http://www.w3.org/Graphics/SVG/1.1/DTD/svg11.dtd">
<!-- Generated by graphviz version 2.40.1 (20161225.0304)
 -->
<!-- Title: g_boxes Pages: 1 -->
<svg width="176pt" height="199pt"
 viewBox="0.00 0.00 175.50 199.00" xmlns="http://www.w3.org/2000/svg" xmlns:xlink="http://www.w3.org/1999/xlink">
<g id="graph0" class="graph" transform="scale(1 1) rotate(0) translate(4 195)">
<title>g_boxes</title>
<polygon fill="#ffffff" stroke="transparent" points="-4,4 -4,-195 171.5,-195 171.5,4 -4,4"/>
<!-- a -->
<g id="node1" class="node">
<title>a</title>
<polygon fill="#ffffff" stroke="#d3d3d3" points="159,-191 105,-191 105,-155 159,-155 159,-191"/>
<text text-anchor="middle" x="132" y="-170.5" font-family="'Source Sans Pro', sans-serif" font-size="10.00" fill="#000000">header</text>
</g>
<!-- b -->
<g id="node2" class="node">
<title>b</title>
<polygon fill="none" stroke="#d3d3d3" stroke-dasharray="5,2" points="167.5,-113.5 96.5,-113.5 96.5,-77.5 167.5,-77.5 167.5,-113.5"/>
<text text-anchor="middle" x="132" y="-93" font-family="'Source Sans Pro', sans-serif" font-size="10.00" fill="#d3d3d3">old content</text>
</g>
<!-- a&#45;&#45;b -->
<g id="edge1" class="edge">
<title>a&#45;&#45;b</title>
<path fill="none" stroke="#d3d3d3" d="M132,-154.6336C132,-142.2795 132,-126.0611 132,-113.7346"/>
</g>
<!-- c -->
<g id="node3" class="node">
<title>c</title>
<polygon fill="#ffffff" stroke="#d3d3d3" points="159,-36 105,-36 105,0 159,0 159,-36"/>
<text text-anchor="middle" x="132" y="-15.5" font-family="'Source Sans Pro', sans-serif" font-size="10.00" fill="#000000">footer</text>
</g>
<!-- b&#45;&#45;c -->
<g id="edge2" class="edge">
<title>b&#45;&#45;c</title>
<path fill="none" stroke="#d3d3d3" d="M132,-77.1336C132,-64.7795 132,-48.5611 132,-36.2346"/>
</g>
<!-- d -->
<g id="node4" class="node">
<title>d</title>
<polygon fill="#ffffff" stroke="#d3d3d3" points="66,-113 0,-113 0,-78 66,-78 78,-95.5 66,-113"/>
<text text-anchor="middle" x="39" y="-93" font-family="'Source Sans Pro', sans-serif" font-size="10.00" fill="#000000">New content</text>
</g>
<!-- d&#45;&#45;b -->
<g id="edge3" class="edge">
<title>d&#45;&#45;b</title>
<path fill="none" stroke="#d3d3d3" d="M78.2344,-95.5C84.255,-95.5 90.2756,-95.5 96.2963,-95.5"/>
</g>
</g>
</svg>
